<svg width="1280" height="780" viewBox="0 0 1280 780" fill="none" xmlns="http://www.w3.org/2000/svg">
  <defs>
    <style>
      .bg { fill: #fcfbf7; }
      .frame { fill: #fffdfa; stroke: #d8d2c7; stroke-width: 1.5; }
      .header { font: 700 33px Georgia, "Times New Roman", serif; fill: #171717; }
      .sub { font: 500 16px Inter, ui-sans-serif, system-ui, sans-serif; fill: #5f5a52; }
      .col { font: 700 19px Inter, ui-sans-serif, system-ui, sans-serif; fill: #171717; }
      .rowhead { font: 700 20px Inter, ui-sans-serif, system-ui, sans-serif; fill: #171717; }
      .rowdesc { font: 600 14px Inter, ui-sans-serif, system-ui, sans-serif; fill: #6a5f4e; }
      .mini { font: 700 13px "JetBrains Mono", "Fira Code", ui-monospace, monospace; fill: #4b5563; dominant-baseline: middle; }
      .legend { font: 600 15px Inter, ui-sans-serif, system-ui, sans-serif; fill: #4b5563; }
      .summary { font: 700 16px Inter, ui-sans-serif, system-ui, sans-serif; fill: #0f172a; }
      .summary-note { font: 600 14px Inter, ui-sans-serif, system-ui, sans-serif; fill: #64748b; }
      .foot { font: 500 14px Inter, ui-sans-serif, system-ui, sans-serif; fill: #5b6472; }
    </style>
  </defs>

  <rect class="bg" width="1280" height="780" rx="24"/>

  <text x="54" y="58" class="header">ZeRO Stages: What Each Stage Partitions</text>
  <text x="54" y="86" class="sub">Rows are training strategies. Columns are optimizer state (O), gradients (G), and parameters (P).</text>

  <rect x="54" y="108" width="1172" height="48" rx="14" class="frame"/>
  <rect x="84" y="124" width="14" height="14" rx="4" fill="#e65a4d"/>
  <rect x="102" y="124" width="14" height="14" rx="4" fill="#f2a24c"/>
  <rect x="120" y="124" width="14" height="14" rx="4" fill="#4f9d69"/>
  <rect x="138" y="124" width="14" height="14" rx="4" fill="#4b7bec"/>
  <text x="164" y="137" class="legend">full copy on every rank</text>
  <rect x="348" y="124" width="14" height="14" rx="4" fill="#e65a4d"/>
  <rect x="366" y="124" width="14" height="14" rx="4" fill="#ece5d8"/>
  <rect x="384" y="124" width="14" height="14" rx="4" fill="#ece5d8"/>
  <rect x="402" y="124" width="14" height="14" rx="4" fill="#ece5d8"/>
  <text x="428" y="137" class="legend">one shard on this rank</text>
  <text x="610" y="137" class="legend">O = fp32 master weights + Adam m/v    G = bf16 grads    P = bf16 params</text>

  <rect x="54" y="178" width="1172" height="560" rx="22" class="frame"/>
  <line x1="278" y1="178" x2="278" y2="738" stroke="#ddd7cc" stroke-width="1.5"/>
  <line x1="498" y1="178" x2="498" y2="738" stroke="#ddd7cc" stroke-width="1.5"/>
  <line x1="718" y1="178" x2="718" y2="738" stroke="#ddd7cc" stroke-width="1.5"/>
  <line x1="938" y1="178" x2="938" y2="738" stroke="#ddd7cc" stroke-width="1.5"/>
  <line x1="54" y1="250" x2="1226" y2="250" stroke="#ddd7cc" stroke-width="1.5"/>
  <line x1="54" y1="372" x2="1226" y2="372" stroke="#ddd7cc" stroke-width="1.5"/>
  <line x1="54" y1="494" x2="1226" y2="494" stroke="#ddd7cc" stroke-width="1.5"/>
  <line x1="54" y1="616" x2="1226" y2="616" stroke="#ddd7cc" stroke-width="1.5"/>

  <text x="166" y="221" class="col" text-anchor="middle">Stage</text>
  <text x="388" y="221" class="col" text-anchor="middle">Optimizer State (O)</text>
  <text x="608" y="221" class="col" text-anchor="middle">Gradients (G)</text>
  <text x="828" y="221" class="col" text-anchor="middle">Parameters (P)</text>
  <text x="1082" y="221" class="col" text-anchor="middle">Per-rank State</text>

  <!-- Row labels -->
  <text x="86" y="312" class="rowhead">DDP</text>
  <text x="86" y="331" class="rowdesc">nothing partitioned</text>
  <text x="86" y="434" class="rowhead">ZeRO-1</text>
  <text x="86" y="453" class="rowdesc">partition O only</text>
  <text x="86" y="556" class="rowhead">ZeRO-2</text>
  <text x="86" y="575" class="rowdesc">partition O and G</text>
  <text x="86" y="678" class="rowhead">ZeRO-3</text>
  <text x="86" y="697" class="rowdesc">partition O, G, and P</text>

  <!-- helper: row labels inside cells -->
  <text x="292" y="272" class="mini">r0</text><text x="292" y="298" class="mini">r1</text><text x="292" y="324" class="mini">r2</text><text x="292" y="350" class="mini">r3</text>
  <text x="512" y="272" class="mini">r0</text><text x="512" y="298" class="mini">r1</text><text x="512" y="324" class="mini">r2</text><text x="512" y="350" class="mini">r3</text>
  <text x="732" y="272" class="mini">r0</text><text x="732" y="298" class="mini">r1</text><text x="732" y="324" class="mini">r2</text><text x="732" y="350" class="mini">r3</text>

  <text x="292" y="394" class="mini">r0</text><text x="292" y="420" class="mini">r1</text><text x="292" y="446" class="mini">r2</text><text x="292" y="472" class="mini">r3</text>
  <text x="512" y="394" class="mini">r0</text><text x="512" y="420" class="mini">r1</text><text x="512" y="446" class="mini">r2</text><text x="512" y="472" class="mini">r3</text>
  <text x="732" y="394" class="mini">r0</text><text x="732" y="420" class="mini">r1</text><text x="732" y="446" class="mini">r2</text><text x="732" y="472" class="mini">r3</text>

  <text x="292" y="516" class="mini">r0</text><text x="292" y="542" class="mini">r1</text><text x="292" y="568" class="mini">r2</text><text x="292" y="594" class="mini">r3</text>
  <text x="512" y="516" class="mini">r0</text><text x="512" y="542" class="mini">r1</text><text x="512" y="568" class="mini">r2</text><text x="512" y="594" class="mini">r3</text>
  <text x="732" y="516" class="mini">r0</text><text x="732" y="542" class="mini">r1</text><text x="732" y="568" class="mini">r2</text><text x="732" y="594" class="mini">r3</text>

  <text x="292" y="638" class="mini">r0</text><text x="292" y="664" class="mini">r1</text><text x="292" y="690" class="mini">r2</text><text x="292" y="716" class="mini">r3</text>
  <text x="512" y="638" class="mini">r0</text><text x="512" y="664" class="mini">r1</text><text x="512" y="690" class="mini">r2</text><text x="512" y="716" class="mini">r3</text>
  <text x="732" y="638" class="mini">r0</text><text x="732" y="664" class="mini">r1</text><text x="732" y="690" class="mini">r2</text><text x="732" y="716" class="mini">r3</text>

  <!-- DDP bars -->
  <rect x="320" y="265" width="148" height="14" rx="6" fill="#f4efe6"/><rect x="320" y="265" width="31" height="14" rx="6" fill="#e65a4d"/><rect x="359" y="265" width="31" height="14" rx="6" fill="#f2a24c"/><rect x="398" y="265" width="31" height="14" rx="6" fill="#4f9d69"/><rect x="437" y="265" width="31" height="14" rx="6" fill="#4b7bec"/>
  <rect x="320" y="291" width="148" height="14" rx="6" fill="#f4efe6"/><rect x="320" y="291" width="31" height="14" rx="6" fill="#e65a4d"/><rect x="359" y="291" width="31" height="14" rx="6" fill="#f2a24c"/><rect x="398" y="291" width="31" height="14" rx="6" fill="#4f9d69"/><rect x="437" y="291" width="31" height="14" rx="6" fill="#4b7bec"/>
  <rect x="320" y="317" width="148" height="14" rx="6" fill="#f4efe6"/><rect x="320" y="317" width="31" height="14" rx="6" fill="#e65a4d"/><rect x="359" y="317" width="31" height="14" rx="6" fill="#f2a24c"/><rect x="398" y="317" width="31" height="14" rx="6" fill="#4f9d69"/><rect x="437" y="317" width="31" height="14" rx="6" fill="#4b7bec"/>
  <rect x="320" y="343" width="148" height="14" rx="6" fill="#f4efe6"/><rect x="320" y="343" width="31" height="14" rx="6" fill="#e65a4d"/><rect x="359" y="343" width="31" height="14" rx="6" fill="#f2a24c"/><rect x="398" y="343" width="31" height="14" rx="6" fill="#4f9d69"/><rect x="437" y="343" width="31" height="14" rx="6" fill="#4b7bec"/>

  <rect x="540" y="265" width="148" height="14" rx="6" fill="#f4efe6"/><rect x="540" y="265" width="31" height="14" rx="6" fill="#e65a4d"/><rect x="579" y="265" width="31" height="14" rx="6" fill="#f2a24c"/><rect x="618" y="265" width="31" height="14" rx="6" fill="#4f9d69"/><rect x="657" y="265" width="31" height="14" rx="6" fill="#4b7bec"/>
  <rect x="540" y="291" width="148" height="14" rx="6" fill="#f4efe6"/><rect x="540" y="291" width="31" height="14" rx="6" fill="#e65a4d"/><rect x="579" y="291" width="31" height="14" rx="6" fill="#f2a24c"/><rect x="618" y="291" width="31" height="14" rx="6" fill="#4f9d69"/><rect x="657" y="291" width="31" height="14" rx="6" fill="#4b7bec"/>
  <rect x="540" y="317" width="148" height="14" rx="6" fill="#f4efe6"/><rect x="540" y="317" width="31" height="14" rx="6" fill="#e65a4d"/><rect x="579" y="317" width="31" height="14" rx="6" fill="#f2a24c"/><rect x="618" y="317" width="31" height="14" rx="6" fill="#4f9d69"/><rect x="657" y="317" width="31" height="14" rx="6" fill="#4b7bec"/>
  <rect x="540" y="343" width="148" height="14" rx="6" fill="#f4efe6"/><rect x="540" y="343" width="31" height="14" rx="6" fill="#e65a4d"/><rect x="579" y="343" width="31" height="14" rx="6" fill="#f2a24c"/><rect x="618" y="343" width="31" height="14" rx="6" fill="#4f9d69"/><rect x="657" y="343" width="31" height="14" rx="6" fill="#4b7bec"/>

  <rect x="760" y="265" width="148" height="14" rx="6" fill="#f4efe6"/><rect x="760" y="265" width="31" height="14" rx="6" fill="#e65a4d"/><rect x="799" y="265" width="31" height="14" rx="6" fill="#f2a24c"/><rect x="838" y="265" width="31" height="14" rx="6" fill="#4f9d69"/><rect x="877" y="265" width="31" height="14" rx="6" fill="#4b7bec"/>
  <rect x="760" y="291" width="148" height="14" rx="6" fill="#f4efe6"/><rect x="760" y="291" width="31" height="14" rx="6" fill="#e65a4d"/><rect x="799" y="291" width="31" height="14" rx="6" fill="#f2a24c"/><rect x="838" y="291" width="31" height="14" rx="6" fill="#4f9d69"/><rect x="877" y="291" width="31" height="14" rx="6" fill="#4b7bec"/>
  <rect x="760" y="317" width="148" height="14" rx="6" fill="#f4efe6"/><rect x="760" y="317" width="31" height="14" rx="6" fill="#e65a4d"/><rect x="799" y="317" width="31" height="14" rx="6" fill="#f2a24c"/><rect x="838" y="317" width="31" height="14" rx="6" fill="#4f9d69"/><rect x="877" y="317" width="31" height="14" rx="6" fill="#4b7bec"/>
  <rect x="760" y="343" width="148" height="14" rx="6" fill="#f4efe6"/><rect x="760" y="343" width="31" height="14" rx="6" fill="#e65a4d"/><rect x="799" y="343" width="31" height="14" rx="6" fill="#f2a24c"/><rect x="838" y="343" width="31" height="14" rx="6" fill="#4f9d69"/><rect x="877" y="343" width="31" height="14" rx="6" fill="#4b7bec"/>

  <text x="962" y="312" class="summary">full O + full G + full P</text>
  <text x="962" y="334" class="summary-note">~112 GB/rank</text>

  <!-- ZeRO-1 bars -->
  <rect x="320" y="387" width="148" height="14" rx="6" fill="#f4efe6"/><rect x="320" y="387" width="31" height="14" rx="6" fill="#e65a4d"/>
  <rect x="320" y="413" width="148" height="14" rx="6" fill="#f4efe6"/><rect x="359" y="413" width="31" height="14" rx="6" fill="#f2a24c"/>
  <rect x="320" y="439" width="148" height="14" rx="6" fill="#f4efe6"/><rect x="398" y="439" width="31" height="14" rx="6" fill="#4f9d69"/>
  <rect x="320" y="465" width="148" height="14" rx="6" fill="#f4efe6"/><rect x="437" y="465" width="31" height="14" rx="6" fill="#4b7bec"/>

  <rect x="540" y="387" width="148" height="14" rx="6" fill="#f4efe6"/><rect x="540" y="387" width="31" height="14" rx="6" fill="#e65a4d"/><rect x="579" y="387" width="31" height="14" rx="6" fill="#f2a24c"/><rect x="618" y="387" width="31" height="14" rx="6" fill="#4f9d69"/><rect x="657" y="387" width="31" height="14" rx="6" fill="#4b7bec"/>
  <rect x="540" y="413" width="148" height="14" rx="6" fill="#f4efe6"/><rect x="540" y="413" width="31" height="14" rx="6" fill="#e65a4d"/><rect x="579" y="413" width="31" height="14" rx="6" fill="#f2a24c"/><rect x="618" y="413" width="31" height="14" rx="6" fill="#4f9d69"/><rect x="657" y="413" width="31" height="14" rx="6" fill="#4b7bec"/>
  <rect x="540" y="439" width="148" height="14" rx="6" fill="#f4efe6"/><rect x="540" y="439" width="31" height="14" rx="6" fill="#e65a4d"/><rect x="579" y="439" width="31" height="14" rx="6" fill="#f2a24c"/><rect x="618" y="439" width="31" height="14" rx="6" fill="#4f9d69"/><rect x="657" y="439" width="31" height="14" rx="6" fill="#4b7bec"/>
  <rect x="540" y="465" width="148" height="14" rx="6" fill="#f4efe6"/><rect x="540" y="465" width="31" height="14" rx="6" fill="#e65a4d"/><rect x="579" y="465" width="31" height="14" rx="6" fill="#f2a24c"/><rect x="618" y="465" width="31" height="14" rx="6" fill="#4f9d69"/><rect x="657" y="465" width="31" height="14" rx="6" fill="#4b7bec"/>

  <rect x="760" y="387" width="148" height="14" rx="6" fill="#f4efe6"/><rect x="760" y="387" width="31" height="14" rx="6" fill="#e65a4d"/><rect x="799" y="387" width="31" height="14" rx="6" fill="#f2a24c"/><rect x="838" y="387" width="31" height="14" rx="6" fill="#4f9d69"/><rect x="877" y="387" width="31" height="14" rx="6" fill="#4b7bec"/>
  <rect x="760" y="413" width="148" height="14" rx="6" fill="#f4efe6"/><rect x="760" y="413" width="31" height="14" rx="6" fill="#e65a4d"/><rect x="799" y="413" width="31" height="14" rx="6" fill="#f2a24c"/><rect x="838" y="413" width="31" height="14" rx="6" fill="#4f9d69"/><rect x="877" y="413" width="31" height="14" rx="6" fill="#4b7bec"/>
  <rect x="760" y="439" width="148" height="14" rx="6" fill="#f4efe6"/><rect x="760" y="439" width="31" height="14" rx="6" fill="#e65a4d"/><rect x="799" y="439" width="31" height="14" rx="6" fill="#f2a24c"/><rect x="838" y="439" width="31" height="14" rx="6" fill="#4f9d69"/><rect x="877" y="439" width="31" height="14" rx="6" fill="#4b7bec"/>
  <rect x="760" y="465" width="148" height="14" rx="6" fill="#f4efe6"/><rect x="760" y="465" width="31" height="14" rx="6" fill="#e65a4d"/><rect x="799" y="465" width="31" height="14" rx="6" fill="#f2a24c"/><rect x="838" y="465" width="31" height="14" rx="6" fill="#4f9d69"/><rect x="877" y="465" width="31" height="14" rx="6" fill="#4b7bec"/>

  <text x="962" y="434" class="summary">1/N O + full G + full P</text>
  <text x="962" y="456" class="summary-note">~38.5 GB/rank</text>

  <!-- ZeRO-2 bars -->
  <rect x="320" y="509" width="148" height="14" rx="6" fill="#f4efe6"/><rect x="320" y="509" width="31" height="14" rx="6" fill="#e65a4d"/>
  <rect x="320" y="535" width="148" height="14" rx="6" fill="#f4efe6"/><rect x="359" y="535" width="31" height="14" rx="6" fill="#f2a24c"/>
  <rect x="320" y="561" width="148" height="14" rx="6" fill="#f4efe6"/><rect x="398" y="561" width="31" height="14" rx="6" fill="#4f9d69"/>
  <rect x="320" y="587" width="148" height="14" rx="6" fill="#f4efe6"/><rect x="437" y="587" width="31" height="14" rx="6" fill="#4b7bec"/>

  <rect x="540" y="509" width="148" height="14" rx="6" fill="#f4efe6"/><rect x="540" y="509" width="31" height="14" rx="6" fill="#e65a4d"/>
  <rect x="540" y="535" width="148" height="14" rx="6" fill="#f4efe6"/><rect x="579" y="535" width="31" height="14" rx="6" fill="#f2a24c"/>
  <rect x="540" y="561" width="148" height="14" rx="6" fill="#f4efe6"/><rect x="618" y="561" width="31" height="14" rx="6" fill="#4f9d69"/>
  <rect x="540" y="587" width="148" height="14" rx="6" fill="#f4efe6"/><rect x="657" y="587" width="31" height="14" rx="6" fill="#4b7bec"/>

  <rect x="760" y="509" width="148" height="14" rx="6" fill="#f4efe6"/><rect x="760" y="509" width="31" height="14" rx="6" fill="#e65a4d"/><rect x="799" y="509" width="31" height="14" rx="6" fill="#f2a24c"/><rect x="838" y="509" width="31" height="14" rx="6" fill="#4f9d69"/><rect x="877" y="509" width="31" height="14" rx="6" fill="#4b7bec"/>
  <rect x="760" y="535" width="148" height="14" rx="6" fill="#f4efe6"/><rect x="760" y="535" width="31" height="14" rx="6" fill="#e65a4d"/><rect x="799" y="535" width="31" height="14" rx="6" fill="#f2a24c"/><rect x="838" y="535" width="31" height="14" rx="6" fill="#4f9d69"/><rect x="877" y="535" width="31" height="14" rx="6" fill="#4b7bec"/>
  <rect x="760" y="561" width="148" height="14" rx="6" fill="#f4efe6"/><rect x="760" y="561" width="31" height="14" rx="6" fill="#e65a4d"/><rect x="799" y="561" width="31" height="14" rx="6" fill="#f2a24c"/><rect x="838" y="561" width="31" height="14" rx="6" fill="#4f9d69"/><rect x="877" y="561" width="31" height="14" rx="6" fill="#4b7bec"/>
  <rect x="760" y="587" width="148" height="14" rx="6" fill="#f4efe6"/><rect x="760" y="587" width="31" height="14" rx="6" fill="#e65a4d"/><rect x="799" y="587" width="31" height="14" rx="6" fill="#f2a24c"/><rect x="838" y="587" width="31" height="14" rx="6" fill="#4f9d69"/><rect x="877" y="587" width="31" height="14" rx="6" fill="#4b7bec"/>

  <text x="962" y="556" class="summary">1/N O + 1/N G + full P</text>
  <text x="962" y="578" class="summary-note">~26.25 GB/rank</text>

  <!-- ZeRO-3 bars -->
  <rect x="320" y="631" width="148" height="14" rx="6" fill="#f4efe6"/><rect x="320" y="631" width="31" height="14" rx="6" fill="#e65a4d"/>
  <rect x="320" y="657" width="148" height="14" rx="6" fill="#f4efe6"/><rect x="359" y="657" width="31" height="14" rx="6" fill="#f2a24c"/>
  <rect x="320" y="683" width="148" height="14" rx="6" fill="#f4efe6"/><rect x="398" y="683" width="31" height="14" rx="6" fill="#4f9d69"/>
  <rect x="320" y="709" width="148" height="14" rx="6" fill="#f4efe6"/><rect x="437" y="709" width="31" height="14" rx="6" fill="#4b7bec"/>

  <rect x="540" y="631" width="148" height="14" rx="6" fill="#f4efe6"/><rect x="540" y="631" width="31" height="14" rx="6" fill="#e65a4d"/>
  <rect x="540" y="657" width="148" height="14" rx="6" fill="#f4efe6"/><rect x="579" y="657" width="31" height="14" rx="6" fill="#f2a24c"/>
  <rect x="540" y="683" width="148" height="14" rx="6" fill="#f4efe6"/><rect x="618" y="683" width="31" height="14" rx="6" fill="#4f9d69"/>
  <rect x="540" y="709" width="148" height="14" rx="6" fill="#f4efe6"/><rect x="657" y="709" width="31" height="14" rx="6" fill="#4b7bec"/>

  <rect x="760" y="631" width="148" height="14" rx="6" fill="#f4efe6"/><rect x="760" y="631" width="31" height="14" rx="6" fill="#e65a4d"/>
  <rect x="760" y="657" width="148" height="14" rx="6" fill="#f4efe6"/><rect x="799" y="657" width="31" height="14" rx="6" fill="#f2a24c"/>
  <rect x="760" y="683" width="148" height="14" rx="6" fill="#f4efe6"/><rect x="838" y="683" width="31" height="14" rx="6" fill="#4f9d69"/>
  <rect x="760" y="709" width="148" height="14" rx="6" fill="#f4efe6"/><rect x="877" y="709" width="31" height="14" rx="6" fill="#4b7bec"/>

  <text x="962" y="678" class="summary">1/N O + 1/N G + 1/N P</text>
  <text x="962" y="700" class="summary-note">~14 GB/rank</text>

  <text x="54" y="760" class="foot">Illustration uses 4 ranks so the partition pattern is visually obvious. Memory numbers still follow the article's N=8 accounting.</text>
</svg>
